<svg xmlns="http://www.w3.org/2000/svg" viewBox="0 0 1080 684.27"><defs><style>.cls-1{fill:#fdbc0c;}.cls-2{fill:#fdbd0e;}</style></defs><g id="Layer_2" data-name="Layer 2"><g id="Layer_0_Image" data-name="Layer 0 Image"><path class="cls-1" d="M1080,501.27v183H398c-1.86-1-3.67-2.16-5.57-3.1-17.17-8.44-34.46-16.64-51.52-25.29-107-54.26-211.79-112.64-316.06-172-8.22-4.67-16.56-9.1-24.85-13.65v-256c40.79,13.38,81.4,27.31,122.39,40q237.42,73.8,479.16,132,170.28,41.08,340.52,82.33C988,479.71,1034,490.41,1080,501.27Z"/><path class="cls-2" d="M1080,159.27c-17.27-1.13-34.55-2.14-51.81-3.42-23.41-1.73-46.8-3.69-70.2-5.53q-49.53-3.91-99.07-7.79c-23.07-1.8-46.15-3.47-69.22-5.27-32.52-2.54-65-5.18-97.57-7.72-23.24-1.81-46.48-3.49-69.72-5.29-32.7-2.53-65.39-5.19-98.09-7.64-25.57-1.91-51.14-3.74-76.73-5.33-37.89-2.36-75.78-4.64-113.69-6.6-22.62-1.18-45.26-2.12-67.91-2.41-46-.59-92-1.53-137.9-.67-37.77.71-75.49,3.77-113.23,5.89-5,.28-9.91,1.17-14.86,1.78v-30C22.23,77.49,44.46,75.51,66.71,74,84,72.82,101.3,71.69,118.6,71.5c54.48-.57,109-.69,163.43-1,11.32-.06,22.63,0,33.16,0-8.51-1.93-18-3.63-27.27-6.3C274.36,60.3,260.87,56,247.61,51.18a45.73,45.73,0,0,1-13.83-8.7c-5.95-5.18-5.59-11.78,1.22-15.72s14-7.52,21.45-9c19.22-3.82,38.59-7.48,58.09-9.28C432.86-2.44,551.54.39,670.13.19c60.15-.1,120.3.28,180.46.56q75.72.36,151.44,1l78,.54v23c-11.81-.27-23.61-.48-35.42-.82-34-1-67.93-2.05-101.9-2.93q-82.7-2.13-165.39-4c-51.8-1.12-103.61-2.19-155.42-2.87-42.79-.57-85.61-1.21-128.4-.58-50.13.73-100.25,2.46-150.34,4.5-15.05.61-30,3.61-45,5.73-2.17.31-4.16,1.87-6.23,2.86l.12,1.58c2.89,1.51,5.64,3.5,8.7,4.44,8.58,2.6,17.2,5.28,26,7,52.63,10.49,106,15.73,159.31,21,34.79,3.44,69.63,6.44,104.47,9.35q61.47,5.11,123,9.72c33.38,2.54,66.75,5.07,100.15,7.21,43.87,2.81,87.76,5.27,131.65,7.8q34.66,2,69.35,3.74,32.69,1.69,65.37,3.26Z"/></g></g></svg>