<?xml version="1.0" encoding="UTF-8"?>
<svg width="1314px" height="633px" viewBox="0 0 1314 633" version="1.1" xmlns="http://www.w3.org/2000/svg" xmlns:xlink="http://www.w3.org/1999/xlink">
    <title>Group 19 Copy 18</title>
    <g id="HOME" stroke="none" stroke-width="1" fill="none" fill-rule="evenodd">
        <g id="Homepage-Design-Concept-(D)-" transform="translate(-207.000000, -3363.000000)">
            <g id="Group-19-Copy-18" transform="translate(207.000000, 3363.000000)">
                <polygon id="Fill-4" fill="#FFBC0D" points="651.291754 320.5 667 333.739456 641.710837 368.5 626 355.263332"></polygon>
                <polygon id="Fill-5" fill="#56AFD1" points="190 227.7037 210.628472 223.5 219 267.2963 198.371528 271.5"></polygon>
                <polygon id="Fill-8" fill="#56AFD1" points="561.948621 494.5 577 479.449525 546.054143 448.5 531 463.553239"></polygon>
                <polygon id="Fill-9" fill="#DB0007" points="1265 362.78877 1303.25588 384.5 1314 366.216715 1314 366.21123 1275.74133 344.5"></polygon>
                <polygon id="Fill-12" fill="#FFBC0D" points="219 427.290605 199.349566 433.5 187 391.712154 206.653102 385.5"></polygon>
                <polygon id="Fill-13" fill="#FFBC0D" points="669 485.004418 690.754292 481.5 698 525.992735 676.245708 529.5"></polygon>
                <polygon id="Fill-14" fill="#DB0007" points="804 399.7037 824.630414 395.5 833 439.2963 812.369586 443.5"></polygon>
                <polygon id="Fill-15" fill="#DB0007" points="342 599.044252 357.150546 584.5 385 617.952914 369.849454 632.5"></polygon>
                <polygon id="Fill-15-Copy" fill="#DB0007" points="0 14.5442522 15.1505462 0 43 33.4529137 27.8494538 48"></polygon>
                <polygon id="Fill-16" fill="#56AFD1" transform="translate(707.500000, 284.500000) rotate(38.000000) translate(-707.500000, -284.500000) " points="693 264.7037 713.631202 260.5 722 304.2963 701.371528 308.5"></polygon>
            </g>
        </g>
    </g>
</svg>