<?xml version="1.0" encoding="UTF-8"?>
<svg width="1523px" height="781px" viewBox="0 0 1523 781" version="1.1" xmlns="http://www.w3.org/2000/svg" xmlns:xlink="http://www.w3.org/1999/xlink">
    <title>Group 19 Copy 17</title>
    <g id="HOME" stroke="none" stroke-width="1" fill="none" fill-rule="evenodd">
        <g id="Homepage-Design-Concept-(D)-" transform="translate(2.000000, -2505.000000)">
            <g id="Group-19-Copy-17" transform="translate(-2.000000, 2505.000000)">
                <polygon id="Fill-1" fill="#56AFD1" points="25 698.946761 40.0504747 714 71 683.050475 55.9467612 668"></polygon>
                <polygon id="Fill-2" fill="#DB0007" points="0 209.757318 12.1566147 192.5 48 217.242682 35.8433853 234.5"></polygon>
                <polygon id="Fill-3" fill="#FFBC0D" points="345 382.733808 350.801985 362.5 393 374.26073 387.198015 394.5"></polygon>
                <polygon id="Fill-4" fill="#FFBC0D" points="860.291754 178.5 876 191.739456 850.710837 226.5 835 213.263332"></polygon>
                <polygon id="Fill-5" fill="#56AFD1" points="399 85.7037004 419.628472 81.5 428 125.2963 407.371528 129.5"></polygon>
                <polygon id="Fill-6" fill="#DB0007" points="153 249.012829 172.053665 241.5 170.001324 265.5 187 281.987171 167.948984 289.5 170.001324 265.5"></polygon>
                <polygon id="Fill-7" fill="#56AFD1" points="1394 750.048615 1424.94862 781 1440 765.945857 1409.05138 735"></polygon>
                <polygon id="Fill-8" fill="#56AFD1" points="770.948621 352.5 786 337.449525 755.054143 306.5 740 321.553239"></polygon>
                <polygon id="Fill-9" fill="#DB0007" points="1474 220.78877 1512.25588 242.5 1523 224.216715 1523 224.21123 1484.74133 202.5"></polygon>
                <polygon id="Fill-10" fill="#FFBC0D" points="1246 403.529033 1286.4624 420.5 1295 401.465579 1254.53203 384.5"></polygon>
                <polygon id="Fill-12" fill="#FFBC0D" points="428 285.290605 408.349566 291.5 396 249.712154 415.653102 243.5"></polygon>
                <polygon id="Fill-13" fill="#FFBC0D" points="878 343.004418 899.754292 339.5 907 383.992735 885.245708 387.5"></polygon>
                <polygon id="Fill-14" fill="#DB0007" points="1013 257.7037 1033.63041 253.5 1042 297.2963 1021.36959 301.5"></polygon>
                <polygon id="Fill-15" fill="#DB0007" points="551 297.044252 566.150546 282.5 594 315.952914 578.849454 330.5"></polygon>
                <polygon id="Fill-16" fill="#56AFD1" points="912 92.7037004 932.631202 88.5 941 132.2963 920.371528 136.5"></polygon>
                <polygon id="Fill-17" fill="#56AFD1" points="1416 53.7037004 1436.62847 49.5 1445 93.2962996 1424.3688 97.5"></polygon>
                <polygon id="Fill-18" fill="#56AFD1" points="1123.17354 0.5 1096 34.6356428 1111.82646 48.5 1139 14.3643572 1123.17889 0.5"></polygon>
            </g>
        </g>
    </g>
</svg>