<svg id="b23fd77b-5a14-48e1-ba0b-a82a40b1ce8b" data-name="Layer 1" xmlns="http://www.w3.org/2000/svg" xmlns:xlink="http://www.w3.org/1999/xlink" viewBox="0 0 147.93 171.14">
  <defs>
    <linearGradient id="fffe14c5-542e-48f5-ac9f-1a656cdc0695" data-name="My McD Gradient RGB 2" x1="-385.75" y1="1916.59" x2="-433.91" y2="1888.79" gradientTransform="matrix(0.84, 0.54, -0.54, 0.84, 1412.15, -1272.78)" gradientUnits="userSpaceOnUse">
      <stop offset="0" stop-color="#910063"/>
      <stop offset="0.04" stop-color="#990059"/>
      <stop offset="0.17" stop-color="#b60035"/>
      <stop offset="0.3" stop-color="#ca001c"/>
      <stop offset="0.42" stop-color="#d7000c"/>
      <stop offset="0.51" stop-color="#db0007"/>
      <stop offset="1" stop-color="#e8720a"/>
    </linearGradient>
    <linearGradient id="ba1a232b-db69-465e-b426-4e3941c81b39" x1="637.25" y1="-594.1" x2="566.7" y2="-594.1" gradientTransform="translate(-355.07 759) rotate(-14.21)" xlink:href="#fffe14c5-542e-48f5-ac9f-1a656cdc0695"/>
    <linearGradient id="bcc3bfb6-767c-4f08-bb86-fe31b837156f" x1="138.45" y1="116.37" x2="101.93" y2="152.88" gradientTransform="matrix(1, 0, 0, 1, 0, 0)" xlink:href="#fffe14c5-542e-48f5-ac9f-1a656cdc0695"/>
  </defs>
  <g>
    <g>
      <path d="M64.52,82.9C63.67,81.7,63,80.42,62,79.19c-.24-.3-.48-.59-.74-.86-4-5.06-10.54-7.84-18.46-7.84-8.23,0-17,3-24.78,8.47C2,90.25-4.55,108.69,3.34,120.2l0,.08c1.1,1.69,1.43,2.15,2.6,3.81,8,11.38,27.59,11.37,43.76,0S72.52,94.27,64.52,82.9Z" transform="translate(0 0)" style="fill: url(#fffe14c5-542e-48f5-ac9f-1a656cdc0695)"/>
      <path d="M19.36,80.82c7.37-5.18,15.71-8,23.47-8a23,23,0,0,1,12.68,3.36,16.49,16.49,0,0,1,4.6,4.4c3.52,5,4,11.71,1.47,18.88s-8.13,14.19-15.5,19.38c-15.1,10.62-33.38,10.75-40.75.28S4.26,91.45,19.36,80.82Z" transform="translate(0 0)" style="fill: #fff"/>
      <path d="M43.63,85c1.55,2.12-9.21,11.37-23.75,20.84l2.1,3C36.59,99.38,49.9,93.59,51.42,95.69s-10.48,11.83-26.46,22l2,2.93C44.3,109.73,56.43,98.1,53.7,94.32c-1.57-2.15-7.24-1.48-14.76,1.38,5.7-5.37,8.53-9.92,6.94-12.1-2.82-3.83-18.93,2-35.58,13.23l2.14,3C28,89.42,42.08,82.88,43.63,85Z" transform="translate(0 0)" style="fill: #ffbc0d"/>
    </g>
    <g>
      <path d="M91.26,69.48a35.28,35.28,0,1,1,25.53-42.86A35.32,35.32,0,0,1,91.26,69.48Z" transform="translate(0 0)" style="fill: url(#ba1a232b-db69-465e-b426-4e3941c81b39)"/>
      <path d="M74.79,4.47a31.78,31.78,0,1,0,38.62,23A31.83,31.83,0,0,0,74.79,4.47Z" transform="translate(0 0)" style="fill: #fff"/>
      <path d="M86.4,15.17C83,16,81.15,21.28,81,28.82c-3.75-6.54-7.9-10.27-11.28-9.42-5.93,1.5-7,17.69-2.28,36.15l4.78-1.21C67.84,37.2,67,22.62,70.29,21.79s9.22,11.32,13.23,27.14l4.77-1.21c-4-15.82-4.58-29.33-1.29-30.17s9.49,12.39,13.84,29.53l4.77-1.2C100.94,27.41,92.33,13.66,86.4,15.17Z" transform="translate(0 0)" style="fill: #ffbc0d"/>
    </g>
    <g>
      <path d="M141.49,124.45c-4.36-8.89-10.29-16.37-16.71-21.06-6.12-4.48-12-5.94-16.91-4.26a7.6,7.6,0,0,0-1.41.41c-1.13.47-5.19,2.29-6.23,2.8-9.81,4.81-10.32,23.86-1.16,42.55s24.55,30,34.35,25.14c1.34-.65,4.43-1.87,6-2.65l.28-.1c5.08-2.49,8-8.43,8.22-16.73C148.13,142.61,145.85,133.33,141.49,124.45Z" transform="translate(0 0)" style="fill: url(#bcc3bfb6-767c-4f08-bb86-fe31b837156f)"/>
      <path d="M138.79,165.43c-4.14,2-9.67.76-15.58-3.56-6.19-4.53-11.95-11.82-16.21-20.51s-6.5-17.7-6.29-25.37c.2-7.32,2.59-12.47,6.72-14.5s9.66-.76,15.57,3.57c6.2,4.53,12,11.81,16.22,20.5,4.11,8.39,6.33,17.07,6.3,24.57,0,.27,0,.54,0,.81C145.3,158.26,142.92,163.4,138.79,165.43Z" transform="translate(0 0)" style="fill: #fff"/>
      <path d="M119.12,112.52c-1.81.89-1.17,6.28,1.3,14-4.58-6.68-8.46-10.49-10.27-9.6-3.18,1.56,1.74,18.14,11,37l2.56-1.26c-8.6-17.54-14.14-32.46-12.37-33.33s9.64,11.56,17.58,27.75l2.56-1.26c-7.94-16.19-12.94-30-11.17-30.89s10.18,12.65,18.78,30.19l2.56-1.26C132.4,125,122.31,111,119.12,112.52Z" transform="translate(0 0)" style="fill: #ffbc0d"/>
    </g>
  </g>
</svg>
