<?xml version="1.0" encoding="UTF-8"?>
<svg width="1434px" height="415px" viewBox="0 0 1434 415" version="1.1" xmlns="http://www.w3.org/2000/svg" xmlns:xlink="http://www.w3.org/1999/xlink">
    <title>Group 19 Copy 17</title>
    <g id="TRENDING" stroke="none" stroke-width="1" fill="none" fill-rule="evenodd">
        <g id="TRENDING-LANDING-PAGE" transform="translate(-5.000000, -1780.000000)">
            <g id="Group-19-Copy-17" transform="translate(5.000000, 1780.000000)">
                <polygon id="Fill-2" fill="#DB0007" points="0.630434783 197.450086 11.8715281 181.23913 45.015528 204.481591 33.7744347 220.692547"></polygon>
                <polygon id="Fill-3" fill="#FFBC0D" points="323.65528 359.775286 329.020314 340.285714 368.040373 351.613864 362.675339 371.108696"></polygon>
                <polygon id="Fill-4" fill="#FFBC0D" points="810.337709 168.909938 825.453416 181.152323 801.1182 213.295031 786 201.055224"></polygon>
                <polygon id="Fill-5" fill="#56AFD1" points="377.903727 80.3281112 396.320901 76.4409938 403.795031 116.93897 385.377857 120.826087"></polygon>
                <polygon id="Fill-7" fill="#56AFD1" points="1311.2236 385.225662 1340.25622 414.26087 1354.37578 400.138717 1325.34316 371.108696"></polygon>
                <polygon id="Fill-8" fill="#56AFD1" points="725.029509 331.65528 739.149068 317.536569 710.119047 288.503106 695.996894 302.624409"></polygon>
                <polygon id="Fill-9" fill="#DB0007" points="1386.43168 207.344712 1423.00971 228.090062 1433.28261 210.620156 1433.28261 210.614915 1396.70191 189.869565"></polygon>
                <polygon id="Fill-12" fill="#FFBC0D" points="403.795031 267.966313 384.867376 273.708075 372.97205 235.067295 391.902275 229.322981"></polygon>
                <polygon id="Fill-13" fill="#FFBC0D" points="827.919255 322.566586 847.341565 319.326087 853.810559 360.468049 834.388248 363.71118"></polygon>
                <polygon id="Fill-14" fill="#DB0007" points="953.677019 241.840534 972.095927 237.953416 979.568323 278.451392 961.149415 282.338509"></polygon>
                <polygon id="Fill-15" fill="#DB0007" points="517.223602 278.526556 531.558956 265.07764 557.909938 296.011196 543.574584 309.462733"></polygon>
                <polygon id="Fill-18" fill="#56AFD1" points="1055.82945 0 1030.11801 31.5648685 1045.09291 44.3850932 1070.80435 12.8202247 1055.83451 0"></polygon>
            </g>
        </g>
    </g>
</svg>